HIERARCHY
ROOT hip
{
  OFFSET 0 0 0
  CHANNELS 6 Xposition Yposition Zposition Zrotation Yrotation Xrotation
  JOINT abdomen
  {
    OFFSET 0 20.6881 -0.73152
    CHANNELS 3 Zrotation Xrotation Yrotation
    JOINT chest
    {
      OFFSET 0 11.7043 -0.48768
      CHANNELS 3 Zrotation Xrotation Yrotation
      JOINT neck
      {
        OFFSET 0 22.1894 -2.19456
        CHANNELS 3 Zrotation Xrotation Yrotation
        JOINT head
        {
          OFFSET -0.24384 7.07133 1.2192
          CHANNELS 3 Zrotation Xrotation Yrotation
          JOINT leftEye
          {
            OFFSET 4.14528 8.04674 8.04672
            CHANNELS 3 Zrotation Xrotation Yrotation
            End Site
            {
              OFFSET 1 0 0
            }
          }
          JOINT rightEye
          {
            OFFSET -3.6576 8.04674 8.04672
            CHANNELS 3 Zrotation Xrotation Yrotation
            End Site
            {
              OFFSET 1 0 0
            }
          }
        }
      }
      JOINT rCollar
      {
        OFFSET -2.68224 19.2634 -4.8768
        CHANNELS 3 Zrotation Xrotation Yrotation
        JOINT rShldr
        {
          OFFSET -8.77824 -1.95073 1.46304
          CHANNELS 3 Zrotation Xrotation Yrotation
          JOINT rForeArm
          {
            OFFSET -28.1742 -1.7115 0.48768
            CHANNELS 3 Zrotation Xrotation Yrotation
            JOINT rHand
            {
              OFFSET -22.5879 0.773209 7.07136
              CHANNELS 3 Zrotation Xrotation Yrotation
              JOINT rThumb1
              {
                OFFSET -1.2192 -0.487915 3.41376
                CHANNELS 3 Zrotation Xrotation Yrotation
                JOINT rThumb2
                {
                  OFFSET -3.37035 -0.52449 3.41376
                  CHANNELS 3 Zrotation Xrotation Yrotation
                  End Site
                  {
                    OFFSET -1.78271 -1.18214 1.43049
                  }
                }
              }
              JOINT rIndex1
              {
                OFFSET -7.75947 0.938293 5.60832
                CHANNELS 3 Zrotation Xrotation Yrotation
                JOINT rIndex2
                {
                  OFFSET -2.54057 -0.884171 1.56538
                  CHANNELS 3 Zrotation Xrotation Yrotation
                  End Site
                  {
                    OFFSET -1.62519 -0.234802 1.16502
                  }
                }
              }
              JOINT rMid1
              {
                OFFSET -8.24714 1.18213 3.41376
                CHANNELS 3 Zrotation Xrotation Yrotation
                JOINT rMid2
                {
                  OFFSET -3.10165 -0.590103 1.0647
                  CHANNELS 3 Zrotation Xrotation Yrotation
                  End Site
                  {
                    OFFSET -2.48547 -0.328903 0.83742
                  }
                }
              }
              JOINT rRing1
              {
                OFFSET -8.82822 0.546677 1.51678
                CHANNELS 3 Zrotation Xrotation Yrotation
                JOINT rRing2
                {
                  OFFSET -2.60934 -0.819778 -0.0198488
                  CHANNELS 3 Zrotation Xrotation Yrotation
                  End Site
                  {
                    OFFSET -2.33842 -0.294052 0.168128
                  }
                }
              }
              JOINT rPinky1
              {
                OFFSET -8.27202 -0.0477905 -0.4584
                CHANNELS 3 Zrotation Xrotation Yrotation
                JOINT rPinky2
                {
                  OFFSET -1.82734 -0.647385 -0.700984
                  CHANNELS 3 Zrotation Xrotation Yrotation
                  End Site
                  {
                    OFFSET -1.69225 -0.51767 -0.607171
                  }
                }
              }
            }
          }
        }
      }
      JOINT lCollar
      {
        OFFSET 2.68224 19.2634 -4.8768
        CHANNELS 3 Zrotation Xrotation Yrotation
        JOINT lShldr
        {
          OFFSET 8.77824 -1.95073 1.46304
          CHANNELS 3 Zrotation Xrotation Yrotation
          JOINT lForeArm
          {
            OFFSET 28.1742 -1.7115 0.48768
            CHANNELS 3 Zrotation Xrotation Yrotation
            JOINT lHand
            {
              OFFSET 22.5879 0.773209 7.07136
              CHANNELS 3 Zrotation Xrotation Yrotation
              JOINT lThumb1
              {
                OFFSET 1.2192 -0.487915 3.41376
                CHANNELS 3 Zrotation Xrotation Yrotation
                JOINT lThumb2
                {
                  OFFSET 3.37035 -0.52449 3.41376
                  CHANNELS 3 Zrotation Xrotation Yrotation
                  End Site
                  {
                    OFFSET 1.78271 -1.18214 1.43049
                  }
                }
              }
              JOINT lIndex1
              {
                OFFSET 7.75947 0.938293 5.60832
                CHANNELS 3 Zrotation Xrotation Yrotation
                JOINT lIndex2
                {
                  OFFSET 2.54057 -0.884171 1.56538
                  CHANNELS 3 Zrotation Xrotation Yrotation
                  End Site
                  {
                    OFFSET 1.62519 -0.234802 1.16502
                  }
                }
              }
              JOINT lMid1
              {
                OFFSET 8.24714 1.18213 3.41376
                CHANNELS 3 Zrotation Xrotation Yrotation
                JOINT lMid2
                {
                  OFFSET 3.10165 -0.590103 1.0647
                  CHANNELS 3 Zrotation Xrotation Yrotation
                  End Site
                  {
                    OFFSET 2.48547 -0.328903 0.83742
                  }
                }
              }
              JOINT lRing1
              {
                OFFSET 8.82822 0.546677 1.51678
                CHANNELS 3 Zrotation Xrotation Yrotation
                JOINT lRing2
                {
                  OFFSET 2.60934 -0.819778 -0.0198488
                  CHANNELS 3 Zrotation Xrotation Yrotation
                  End Site
                  {
                    OFFSET 2.33842 -0.294052 0.168128
                  }
                }
              }
              JOINT lPinky1
              {
                OFFSET 8.27202 -0.0477905 -0.4584
                CHANNELS 3 Zrotation Xrotation Yrotation
                JOINT lPinky2
                {
                  OFFSET 1.82734 -0.647385 -0.700984
                  CHANNELS 3 Zrotation Xrotation Yrotation
                  End Site
                  {
                    OFFSET 1.69225 -0.51767 -0.607171
                  }
                }
              }
            }
          }
        }
      }
    }
  }
  JOINT rButtock
  {
    OFFSET -8.77824 4.35084 1.2192
    CHANNELS 3 Zrotation Xrotation Yrotation
    JOINT rThigh
    {
      OFFSET 0 -1.70687 -2.19456
      CHANNELS 3 Zrotation Xrotation Yrotation
      JOINT rShin
      {
        OFFSET 0 -36.8199 0.73152
        CHANNELS 3 Zrotation Xrotation Yrotation
        JOINT rFoot
        {
          OFFSET 0.73152 -45.1104 -5.12064
          CHANNELS 3 Zrotation Xrotation Yrotation
          End Site
          {
            OFFSET -1.1221 -3.69964 12.103
          }
        }
      }
    }
  }
  JOINT lButtock
  {
    OFFSET 8.77824 4.35084 1.2192
    CHANNELS 3 Zrotation Xrotation Yrotation
    JOINT lThigh
    {
      OFFSET 0 -1.70687 -2.19456
      CHANNELS 3 Zrotation Xrotation Yrotation
      JOINT lShin
      {
        OFFSET 0 -36.8199 0.73152
        CHANNELS 3 Zrotation Xrotation Yrotation
        JOINT lFoot
        {
          OFFSET -0.73152 -45.1104 -5.12064
          CHANNELS 3 Zrotation Xrotation Yrotation
          End Site
          {
            OFFSET 1.1221 -3.69964 12.103
          }
        }
      }
    }
  }
}
MOTION
Frames:	4
Frame Time:	0.03333
0.013579503633081913 -0.2422822266817093 0.058176442980766296 -18.195829689502716 -3.1198157742619514 1.4826567471027374 -1.623767428100109 12.865241020917892 3.2486359030008316 2.159150931984186 -9.310328364372253 0.8979991357773542 -4.099352136254311 13.359938263893127 -3.2199490070343018 8.473879471421242 -22.314546704292297 -4.914211928844452 0.12120718136429787 0.5346266180276871 -0.40158393792808056 -0.1761749479919672 0.49310166388750076 0.016446870868094265 -0.392957367002964 -0.4136943630874157 -0.19762847106903791 40.99031209945679 25.4730623960495 9.866509214043617 -22.851892411708832 -26.01835548877716 57.112061977386475 -3.538782186806202 -8.973375856876373 -3.674885183572769 -0.036024958826601505 -0.22115739528089762 1.4601486548781395 0.5039092898368835 0.19334693206474185 -0.1810512039810419 0.2843452524393797 0.0559232197701931 0.5024020560085773 7.529938369989395 4.823270291090012 0.5434935819357634 0.027361182728782296 0.024915123358368874 0.38495616987347603 2.547244615852833 1.3558045215904713 -0.1002763956785202 -0.9487492963671684 0.5610264278948307 -0.1063663512468338 9.70882348716259 0.5080394726246595 -0.4775582626461983 -0.5679420009255409 0.5245569348335266 -0.18667797558009624 2.2244954109191895 -0.9006262756884098 -1.018337868154049 -0.21564356982707977 0.2582510467618704 0.11552676558494568 -48.52762520313263 26.649583876132965 -24.196223616600037 20.7172429561615 -21.77588403224945 -53.536977767944336 4.170353226363659 -11.713485717773438 2.9622893035411835 -0.3819002117961645 -0.11742962524294853 -0.2023035823367536 0.5667117889970541 -0.5691746436059475 -0.8935916796326637 -0.6618179753422737 0.2790807466953993 0.12043059803545475 -7.564104348421097 5.24008221924305 -0.33197740791365504 -0.10178069584071636 0.15330643393099308 -0.5850603617727757 -2.919095680117607 0.6422268692404032 -0.40417319163680077 -0.9319506213068962 0.2352879848331213 0.08704874664545059 -10.107999220490456 1.1216852255165577 -0.35444118082523346 -0.3918218705803156 -0.22831030189990997 0.017122803255915642 -2.7838298678398132 -0.3924945602193475 0.29279060661792755 0.12831914238631725 0.004440805641934276 -0.5382626876235008 -29.82509672641754 -29.665923714637756 -23.765393793582916 -19.006987363100052 54.276366233825684 21.098957508802414 -4.427465423941612 -10.087124928832054 -8.0053049325943 -0.7568422704935074 -0.8720731548964977 0.23328747600317 33.79265785217285 -30.18667995929718 27.315654158592224 20.7781720161438 55.958717465400696 -17.987361699342728 5.354829803109169 -9.985593929886818 11.916161477565765
0.007769483141601086 -0.7909471392631531 0.16773781925439835 -22.21369966864586 -1.5771503001451492 4.934325814247131 -2.755306586623192 14.549224376678467 3.6644641309976578 3.1272783502936363 -10.067427456378937 0.7619750127196312 -4.980275072157383 15.370650887489319 -3.224809169769287 8.667913153767586 -24.974251985549927 -4.9245501682162285 -0.149613618850708 -0.4724288731813431 -0.24199836887419224 -0.08542726747691631 0.03298832103610039 -0.03409980854485184 0.025785081088542938 0.005408842116594315 -0.47150766011327505 50.23668587207794 30.88035821914673 12.700212746858597 -24.442833960056305 -30.794691145420074 67.47581720352173 -5.34524392336607 -13.50103184580803 -5.018274933099747 -0.24665786884725094 0.14227794483304024 0.2193007618188858 0.2678907383233309 0.06530009675770998 0.17993062734603882 0.08662973530590534 -0.3093732800334692 -0.21399937570095062 7.701305374503136 5.528274178504944 0.38782864809036255 0.021662232466042042 0.09242737200111151 0.024869441986083984 2.762926574796438 1.0611259751021862 0.21335028111934662 0.30084360390901566 -0.05578257143497467 0.38481795229017735 10.29756098985672 0.6183306500315666 0.1589929684996605 0.029219985008239746 0.037412289530038834 0.03203366417437792 2.472551967948675 -0.8655415568500757 -0.15909120440483093 0.17479084432125092 -0.3208322636783123 -0.06945714354515076 -59.38516974449158 31.536946892738342 -25.097386837005615 22.876410484313965 -27.115252912044525 -61.99506640434265 5.702691525220871 -11.510193049907684 3.391071930527687 -0.049533359706401825 -0.09122385643422604 -0.15680080745369196 0.11029444634914398 0.15194261446595192 -0.023837462067604065 0.0684560090303421 -0.009856782853603363 -0.17681607976555824 -7.6379140466451645 5.54690882563591 -0.2788377134129405 -0.024089086800813675 -0.09834051132202148 -0.0003067776560783386 -2.8955277800559998 0.9151322487741709 -0.04993552342057228 0.3422512114048004 -0.10635629296302795 -0.19003333523869514 -10.168402567505836 0.530644878745079 0.008823461830615997 0.10924637317657471 -0.10593711398541927 -0.21691912785172462 -2.3178215324878693 -0.6620253017172217 0.2367998706176877 0.03231931943446398 -0.08724187617190182 0.13587584719061852 -34.88782525062561 -34.43028062582016 -29.79446053504944 -23.104304373264313 63.3990740776062 22.178384363651276 -4.3514640256762505 -10.594021528959274 -9.622897580265999 -0.08393000811338425 -0.3094129264354706 -0.09066377766430378 42.22027122974396 -33.34571063518524 35.894222259521484 23.52123498916626 64.60850358009338 -23.77815842628479 5.3721508383750916 -10.771225690841675 14.127371907234192
-0.14295974094420671 -1.9559910297393799 1.94351015239954 -16.328039914369583 3.9361879974603653 -1.3670280575752258 -1.9707470387220383 18.6638443171978 3.184269592165947 4.478353299200535 -10.160838067531586 0.87200534529984 -5.163159146904945 14.231337010860443 -2.7669173665344715 10.256348848342896 -25.136501491069794 -5.800812765955925 0.13501544483006 0.6449763849377632 0.6882023625075817 0.31753105111420155 -0.3073417581617832 -0.2935201255604625 -0.4305500350892544 0.5337812192738056 0.11105690617114305 44.53178822994232 27.02273815870285 21.827272474765778 -27.147420644760132 -33.50070208311081 72.52382040023804 -3.9204860106110573 -7.91625089943409 -3.965654745697975 0.28790223877876997 -0.6803969666361809 0.5215562134981155 -0.5952596291899681 -0.40762356016784906 -0.5173012241721153 0.303473761305213 0.061956681311130524 0.2178359404206276 8.224788755178452 5.716841518878937 0.19365482032299042 0.1442059502005577 0.30189632903784513 0.1892680674791336 3.1252187490463257 0.3281082585453987 -0.2344135008752346 -0.04387557506561279 -0.8421941846609116 0.9325047489255667 10.081397742033005 0.7738651614636183 0.7378022745251656 -0.2342577651143074 -0.15593072399497032 -0.11965053621679544 3.132038936018944 -0.9892600402235985 -0.031689293682575226 -0.2759295701980591 -0.5052902922034264 -0.5376694165170193 -39.579893946647644 32.5609365105629 -46.65762662887573 24.854207038879395 -30.920097827911377 -66.76980078220367 2.8108661994338036 -10.623936206102371 0.9938655607402325 -1.0135973989963531 -0.27023415081202984 0.2348650968633592 0.26554313488304615 -0.3310769610106945 0.3853975608944893 0.7181041315197945 0.49154480919241905 0.5326806753873825 -7.70872637629509 5.769194886088371 -0.8559705130755901 0.25666150264441967 0.34035002812743187 -0.5454696156084538 -3.0466313660144806 1.0873778443783522 0.19420132040977478 -1.1865982040762901 -0.8667687512934208 -0.2976050041615963 -10.27769386768341 0.763009674847126 0.47699516639113426 0.6122445501387119 0.4503929754719138 0.10496296919882298 -3.1132668256759644 -0.4986154055222869 0.030812043696641922 -0.06876844447106123 0.7505196332931519 -0.09893478825688362 -36.747148633003235 -41.20835155248642 -34.279315173625946 -39.14564698934555 64.27813053131104 28.553557991981506 -4.444459229707718 -8.558998703956604 -11.966955810785294 0.15048734843730927 -0.4815748706459999 -0.08386638946831226 40.14619141817093 -35.295735597610474 32.447361052036285 38.59994888305664 67.40739405155182 -35.15745162963867 4.686132296919823 -7.534769028425217 13.468405455350876
-0.25435416866093874 -3.3594446182250977 3.770768143236637 -14.854689091444016 10.459670349955559 7.145640850067139 -2.1487166360020638 20.618152767419815 -0.7232653722167015 4.7858524695038795 -10.394648909568787 -0.08095166645944118 -6.172055304050446 12.865513265132904 -4.264640584588051 11.974862962961197 -27.641547918319702 -8.528678342700005 0.8306135796010494 1.4626377448439598 0.9551254101097584 -0.05035202018916607 -0.387613233178854 -0.5831554485484958 -0.4802015796303749 -0.31857216730713844 -0.25417597498744726 40.109989643096924 28.729172945022583 21.817418038845062 -25.871949791908264 -30.505144000053406 71.93616986274719 -0.7943747565150261 -3.173459954559803 3.2776547223329544 1.0886771231889725 -2.633419632911682 1.7702264338731766 0.2105698361992836 0.8555448800325394 -0.09323308244347572 0.61995062045753 0.3742501325905323 0.18064945936203003 8.994159623980522 5.673146992921829 0.365025345236063 -0.38448359817266464 0.19204251933842897 0.38867924362421036 3.0863501876592636 1.1702139303088188 -0.761768314987421 0.14303650707006454 -1.8119639530777931 1.5822122991085052 9.707682207226753 0.6614500936120749 2.3037265241146088 0.6149165332317352 -0.12863555923104286 1.2490754015743732 2.9642298817634583 -0.44073253870010376 -1.7576123401522636 -0.7768388092517853 0.06897686049342155 -0.0300621148198843 -30.743439495563507 29.224314093589783 -56.17179751396179 23.849633932113647 -33.36357146501541 -74.07437324523926 2.2211335971951485 -10.357517749071121 1.6443545557558537 -0.9022506885230541 -0.5160317849367857 1.0966538451611996 0.21490512415766716 -1.2159492820501328 -1.0114140808582306 -0.6557649001479149 0.218699024990201 1.1419939063489437 -8.094588294625282 6.131512373685837 -0.38877802435308695 -1.351098334416747 0.9397662431001663 -0.22424591705203056 -3.325815126299858 0.9757278766483068 0.7296310923993587 -1.642051711678505 -1.2476865202188492 -0.5920082051306963 -10.28875395655632 0.89997299015522 1.5970293246209621 0.4442787542939186 0.1491249119862914 0.2571206633001566 -1.9943157769739628 0.16474844422191381 0.6803042627871037 0.12697883415967226 2.0770446583628654 -1.4848290011286736 -33.61510097980499 -46.95406436920166 -28.370451629161835 -21.893633008003235 66.6311252117157 20.880486220121384 -1.8268565833568573 -7.7326154708862305 -10.021854043006897 0.13984886929392815 0.019306205213069916 -1.8164533004164696 34.68153119087219 -42.49636173248291 29.066262245178223 44.577868580818176 70.34510493278503 -51.67416214942932 4.51571948826313 -6.826803982257843 17.19668135046959
